<svg xmlns="http://www.w3.org/2000/svg" viewBox="0 0 900 520"><defs><linearGradient id="bg" x1="0" y1="0" x2="1" y2="1"><stop stop-color="#f7fbfb"/><stop offset="1" stop-color="#dff6f6"/></linearGradient><filter id="s"><feDropShadow dx="0" dy="24" stdDeviation="20" flood-color="#071b3d" flood-opacity=".18"/></filter></defs><rect width="900" height="520" rx="28" fill="url(#bg)"/><g font-family="Inter, Arial" fill="#071b3d"><text x="70" y="82" font-size="22" font-weight="800" letter-spacing="4" fill="#00aeb8">CLEARDEC</text><text x="70" y="130" font-size="42" font-weight="900">Building the future of</text><text x="70" y="178" font-size="42" font-weight="900">customs declarations.</text><text x="70" y="224" font-size="19" fill="#42566b">A simpler declaration platform shaped by</text><text x="70" y="251" font-size="19" fill="#42566b">real forwarding and compliance experience.</text></g><g filter="url(#s)"><rect x="445" y="125" width="340" height="225" rx="18" fill="#071b3d"/><rect x="465" y="148" width="300" height="175" rx="10" fill="#f7fbfb"/><rect x="490" y="174" width="100" height="18" rx="9" fill="#00aeb8"/><rect x="490" y="215" width="250" height="14" rx="7" fill="#d8e6eb"/><rect x="490" y="246" width="210" height="14" rx="7" fill="#d8e6eb"/><rect x="490" y="277" width="235" height="14" rx="7" fill="#d8e6eb"/><circle cx="710" cy="183" r="28" fill="#e8fbfb"/><path d="M701 184l7 7 15-18" fill="none" stroke="#00aeb8" stroke-width="5" stroke-linecap="round" stroke-linejoin="round"/></g><path d="M505 370h220l28 42H477z" fill="#0e274b" opacity=".8"/></svg>