<svg xmlns="http://www.w3.org/2000/svg" viewBox="0 0 900 520"><defs><linearGradient id="bg" x1="0" y1="0" x2="1" y2="1"><stop stop-color="#f7fbfb"/><stop offset="1" stop-color="#dff6f6"/></linearGradient><linearGradient id="mug" x1="0" y1="0" x2="1" y2="1"><stop stop-color="#071b3d"/><stop offset="1" stop-color="#0b315d"/></linearGradient><filter id="shadow" x="-20%" y="-20%" width="140%" height="140%"><feDropShadow dx="0" dy="22" stdDeviation="20" flood-color="#071b3d" flood-opacity=".18"/></filter></defs><rect width="900" height="520" rx="28" fill="url(#bg)"/><path d="M0 440 C180 390 270 510 460 452 C620 402 700 392 900 450 L900 520 L0 520Z" fill="#ffffff" opacity=".72"/><g filter="url(#shadow)"><rect x="290" y="165" width="250" height="210" rx="26" fill="url(#mug)"/><path d="M540 220 h58 c48 0 80 33 80 75s-32 75-80 75h-58v-42h52c22 0 38-13 38-33s-16-33-38-33h-52z" fill="#071b3d"/><text x="342" y="286" fill="#fff" font-family="Arial Black, Arial" font-size="64">DS</text><text x="450" y="286" fill="#00c9cf" font-family="Arial Black, Arial" font-size="64">4</text></g><g opacity=".55" stroke="#00aeb8" stroke-width="3" fill="none"><path d="M360 115 c-24-40 38-48 12-88"/><path d="M435 115 c-28-42 36-54 10-92"/><path d="M500 115 c-22-34 34-45 12-78"/></g><g font-family="Inter, Arial" fill="#071b3d"><text x="70" y="82" font-size="22" font-weight="800" letter-spacing="4" fill="#00aeb8">TRADE OVER COFFEE</text><text x="70" y="126" font-size="42" font-weight="900">Insights for people</text><text x="70" y="174" font-size="42" font-weight="900">involved in trade.</text><text x="70" y="220" font-size="19" fill="#42566b">A practical monthly note on customs, freight,</text><text x="70" y="247" font-size="19" fill="#42566b">compliance and the realities of moving goods.</text></g></svg>